<svg xmlns="http://www.w3.org/2000/svg" viewBox="0 0 42 42"><defs><style>.cls-1{fill:#fff;}.cls-2{fill:none;stroke:#fff;stroke-miterlimit:10;stroke-width:2px;}</style></defs><g id="Layer_2" data-name="Layer 2"><g id="Layer_1-2" data-name="Layer 1"><path class="cls-1" d="M20.9,10.18c-9.9,0-10.67.78-10.67,10.68v.19c0,9.9.77,10.68,10.67,10.68h.2c9.9,0,10.67-.78,10.67-10.68V21C31.77,11,31,10.18,21,10.18Zm-2,2.16h4.3c6,0,6.47.47,6.47,6.46v4.31c0,6-.47,6.46-6.47,6.46h-4.3c-6,0-6.47-.47-6.47-6.46V18.8C12.38,12.81,12.85,12.34,18.85,12.34Zm7.53,2.15a1.08,1.08,0,1,0,1.08,1.08A1.08,1.08,0,0,0,26.38,14.49ZM21,15.57a5.39,5.39,0,1,0,5.4,5.37A5.39,5.39,0,0,0,21,15.57Zm0,2.15A3.24,3.24,0,1,1,17.77,21,3.23,3.23,0,0,1,21,17.72Z"/><circle class="cls-2" cx="21" cy="21" r="20"/></g></g></svg>