<svg xmlns="http://www.w3.org/2000/svg" viewBox="0 0 57.08 61.7"><defs><style>.cls-1{fill:#fff;}</style></defs><g id="Layer_2" data-name="Layer 2"><g id="Layer_1-2" data-name="Layer 1"><path class="cls-1" d="M37.09,23c-3.55,0-7.1,0-10.64,0-.38,0-.5.08-.5.48q0,9.07,0,18.16a3.82,3.82,0,0,0,1.72,3.41c.32.21.87.46.76.81s-.67.12-1,.12c-3.27,0-6.54,0-9.8,0-.15,0-.37.1-.45-.09s.12-.32.25-.44c.36-.29.74-.56,1.08-.86a3.37,3.37,0,0,0,1.16-2.48c0-.23,0-.46,0-.7q0-18.4,0-36.82A4.21,4.21,0,0,0,19,2,6.06,6.06,0,0,0,17.78.84a1.82,1.82,0,0,1-.35-.27c-.12-.12-.34-.23-.25-.44s.3-.08.45-.08H28c.15,0,.36-.1.44.09s-.11.3-.23.4-.57.45-.85.68A3.39,3.39,0,0,0,26,4c0,5.26,0,10.53,0,15.79,0,.31.09.38.39.38H47.88c.33,0,.41-.1.41-.42,0-5.13,0-10.26,0-15.39A3.78,3.78,0,0,0,46.59,1c-.23-.16-.44-.35-.66-.52s-.2-.19-.16-.34.22-.1.33-.11.37,0,.55,0h10c.16,0,.4-.12.47.11s-.15.32-.28.43-.55.42-.82.64A3.47,3.47,0,0,0,54.58,4c0,3.37,0,6.73,0,10.1q0,13.64,0,27.27a4.05,4.05,0,0,0,1.86,3.78c.28.18.74.41.64.73s-.59.11-.9.11H46.22c-.15,0-.36.1-.44-.09s.1-.34.23-.45c.38-.32.78-.61,1.15-.93a3.08,3.08,0,0,0,1.09-2.3c0-1,0-2,0-3.07q0-7.81,0-15.64c0-.42-.11-.51-.51-.51C44.21,23,40.65,23,37.09,23Z"/><path class="cls-1" d="M5.63,46H.44c-.15,0-.37.12-.43-.1s.12-.3.24-.41.37-.28.55-.41a3.88,3.88,0,0,0,1.73-3.46q0-9.93,0-19.85c0-5.72,0-11.45,0-17.17A4.14,4.14,0,0,0,.65.85C.39.68-.06.49.05.16S.61.06.9.06c3.32,0,6.63,0,10,0,.15,0,.37-.09.45.08s-.12.32-.24.43a8.07,8.07,0,0,1-.73.58A3.5,3.5,0,0,0,8.83,4c0,.26,0,.53,0,.79,0,12.18,0,24.35,0,36.53a4.17,4.17,0,0,0,1.95,3.94c.25.16.65.36.54.68s-.49.09-.76.09C8.9,46,7.27,46,5.63,46Z"/><path class="cls-1" d="M23,59.26a5.3,5.3,0,0,0,.45-1.17c.59-1.65,1.19-3.3,1.75-5,.13-.37.36-.32.61-.32.83,0,.83,0,.83.82,0,2.47,0,4.94,0,7.42,0,.45-.16.49-.54.49s-.54,0-.53-.5c0-2,0-3.95.06-5.93a1.14,1.14,0,0,0-.09-.56l-.82,2.22c-.42,1.16-.85,2.31-1.27,3.47-.08.24-.15.42-.49.42s-.37-.23-.45-.45l-2.06-5.6a.45.45,0,0,0-.17-.23c0,.7.09,1.4.1,2.1,0,1.55,0,3.1,0,4.65,0,.33-.1.42-.42.41a13.64,13.64,0,0,0-1.43,0,.35.35,0,0,1-.4-.31c-.19-.69-.43-1.38-.64-2.07a.35.35,0,0,0-.41-.3c-.84,0-1.69,0-2.53,0-.25,0-.37.06-.44.33-.17.67-.39,1.32-.59,2-.07.24-.16.37-.47.37q-2.25,0-4.5,0c-.29,0-.36-.09-.36-.37q0-4,0-8c0-.3.11-.36.37-.36.76,0,.76,0,.76.76V57c0,1.06,0,2.11,0,3.17,0,.35.1.44.44.43.81,0,1.62,0,2.42,0a.47.47,0,0,0,.55-.4c.77-2.32,1.56-4.63,2.33-7a.5.5,0,0,1,.59-.42c.83,0,.82,0,1.09.8.8,2.35,1.59,4.7,2.39,7,0,.13,0,.3.23.42v-.54c0-2.41,0-4.82,0-7.22,0-.37.06-.52.48-.5.82,0,.84,0,1.12.77C21.59,55.45,22.26,57.34,23,59.26ZM15.78,53.7,14.5,58h2.57Z"/><path class="cls-1" d="M54.91,56.84l.37.12a1.91,1.91,0,0,1,1.64,1.83,2.26,2.26,0,0,1-1.24,2.28,4.15,4.15,0,0,1-2,.46c-.85,0-1.71,0-2.57,0-.25,0-.34-.07-.34-.33q0-4,0-8.06c0-.17,0-.35.23-.34a19.79,19.79,0,0,1,3.69.14A2,2,0,0,1,56.11,56,2,2,0,0,1,54.91,56.84ZM52,59v1.33c0,.16,0,.31.22.3a8.74,8.74,0,0,0,2.5-.18,1.52,1.52,0,0,0,1.17-1.57,1.4,1.4,0,0,0-1.18-1.39,10,10,0,0,0-2.5-.13c-.23,0-.21.16-.21.3Zm0-3.94V56.2c0,.14,0,.32.2.31a6.58,6.58,0,0,0,2.34-.2A1.28,1.28,0,0,0,55.32,55a1.13,1.13,0,0,0-.93-1.17,8.93,8.93,0,0,0-2.25-.11c-.2,0-.19.14-.19.27Z"/><path class="cls-1" d="M36.17,57.14c0-1.32,0-2.64,0-4,0-.3.09-.38.39-.38.75,0,.75,0,.75.76s0,1.62,0,2.42c0,.37.09.49.47.48,1.07,0,2.14,0,3.21,0,.29,0,.37-.09.36-.36,0-.89,0-1.79,0-2.68,0-.69-.11-.57.64-.62.46,0,.56.13.52.55s0,.79,0,1.19c0,2.17,0,4.35,0,6.53,0,.54-.28.47-.61.46s-.6.08-.58-.44c0-1.09,0-2.18,0-3.27,0-.3,0-.43-.4-.42q-1.6,0-3.21,0c-.37,0-.43.14-.42.46,0,1,0,2.11,0,3.16,0,.55-.25.51-.62.52s-.55,0-.54-.49C36.19,59.75,36.17,58.44,36.17,57.14Z"/><path class="cls-1" d="M44.68,55.85c0,.92,0,1.85,0,2.77a2,2,0,1,0,4,0c.15-1.35,0-2.71.07-4.06a10.08,10.08,0,0,0,0-1.23c-.06-.49.15-.62.57-.54.19,0,.52-.16.51.25,0,2,.13,4-.09,5.93a2.68,2.68,0,0,1-1.82,2.49,3.26,3.26,0,0,1-3.34-.54,3.47,3.47,0,0,1-1-2.7c0-1.7,0-3.39,0-5.09,0-.26.07-.34.33-.35.79,0,.79,0,.79.73v2.32Z"/><path class="cls-1" d="M4.6,61.66a4,4,0,0,1-2.63-1c-.19-.16-.21-.26-.05-.47.43-.54.4-.53,1-.14a2.88,2.88,0,0,0,3,.46,1.14,1.14,0,0,0,.73-1.07A1.19,1.19,0,0,0,6,58.16c-.75-.38-1.52-.71-2.26-1.08a2.21,2.21,0,0,1-1.48-2.59,2.51,2.51,0,0,1,2.36-1.84,3.61,3.61,0,0,1,2.7.87c.18.16.22.32,0,.42s-.2.67-.65.32a2.62,2.62,0,0,0-2.36-.55,1.18,1.18,0,0,0-1,1A1.15,1.15,0,0,0,4,56c.85.42,1.74.77,2.58,1.22A2.29,2.29,0,0,1,7,60.88,3.25,3.25,0,0,1,4.6,61.66Z"/><path class="cls-1" d="M33.19,61.66a3.74,3.74,0,0,1-3.74-3.59,6,6,0,0,1,.47-3.37,3.58,3.58,0,0,1,5.23-1.42c.52.38.5.73,0,1.06-.13.09-.18,0-.24-.05-1.74-1.19-3.45-.67-4.07,1.3a4.58,4.58,0,0,0,.33,3.87,2.39,2.39,0,0,0,3.79.56c.44-.41.52,0,.74.15s.05.4-.11.55A3.18,3.18,0,0,1,33.19,61.66Z"/><path class="cls-1" d="M.15,57.13c0-1.3,0-2.6,0-3.9,0-.35.1-.47.44-.43a1.7,1.7,0,0,0,.39,0c.22,0,.33,0,.33.29q0,4,0,8.1c0,.26-.09.36-.35.33H.61c-.36.06-.48-.06-.47-.44C.16,59.77.15,58.45.15,57.13Z"/><path class="cls-1" d="M27.68,57.13c0-1.3,0-2.6,0-3.9,0-.5.26-.44.55-.42s.62-.15.61.41c0,2.63,0,5.27,0,7.91,0,.33-.1.42-.42.41-.88,0-.72.09-.72-.7C27.67,59.61,27.68,58.37,27.68,57.13Z"/></g></g></svg>