<svg xmlns="http://www.w3.org/2000/svg" viewBox="0 0 247.8 267.85"><defs><style>.cls-1{fill:#cf7d38;}.cls-2{fill:#5e3a1c;}</style></defs><g id="Layer_2" data-name="Layer 2"><g id="Layer_1-2" data-name="Layer 1"><path class="cls-1" d="M161,99.94c-15.4,0-30.79,0-46.19,0-1.62,0-2.14.31-2.14,2.06q.09,39.42,0,78.85c0,6.27,2.26,11.21,7.5,14.78,1.37.94,3.74,2,3.29,3.53s-2.91.51-4.45.52c-14.18.06-28.36,0-42.54,0-.65,0-1.59.45-1.93-.36s.52-1.42,1.09-1.91c1.53-1.28,3.17-2.44,4.69-3.75a14.63,14.63,0,0,0,5-10.78c.06-1,.08-2,.08-3q0-79.92,0-159.84c0-4.08-.38-8-2.91-11.42a24.28,24.28,0,0,0-5.33-4.94,12.44,12.44,0,0,1-1.52-1.19c-.51-.53-1.47-1-1.07-1.9S75.87.23,76.52.23q22.56,0,45.12,0c.65,0,1.58-.45,1.91.39s-.48,1.3-1,1.74c-1.19,1-2.46,1.95-3.7,2.92a14.83,14.83,0,0,0-6.08,12c-.09,22.84,0,45.68-.1,68.53,0,1.37.43,1.65,1.72,1.64q46.72,0,93.45,0c1.43,0,1.78-.42,1.78-1.81q-.06-33.4,0-66.81a16.47,16.47,0,0,0-7.37-14.43c-1-.69-1.92-1.49-2.86-2.26-.45-.37-.87-.83-.7-1.46.22-.81.94-.44,1.45-.48.78,0,1.57,0,2.36,0q21.58,0,43.18,0c.7,0,1.77-.52,2.07.47.26.81-.64,1.38-1.22,1.87-1.14,1-2.38,1.83-3.55,2.76a14.93,14.93,0,0,0-6,12c-.09,14.61-.06,29.22-.06,43.83,0,39.46.06,78.92-.06,118.38,0,7,2.07,12.55,8.08,16.45,1.2.78,3.21,1.76,2.78,3.15-.38,1.22-2.53.48-3.88.49q-21.6.08-43.19,0c-.64,0-1.54.46-1.91-.39s.46-1.45,1-1.93c1.64-1.39,3.37-2.66,5-4a13.52,13.52,0,0,0,4.72-10c.21-4.44.12-8.88.13-13.32,0-22.63,0-45.26,0-67.89,0-1.82-.49-2.21-2.25-2.2C191.93,100,176.46,99.94,161,99.94Z"/><path class="cls-1" d="M24.45,199.69c-7.52,0-15,0-22.56,0-.63,0-1.6.49-1.86-.47-.19-.73.53-1.29,1.07-1.75.77-.64,1.57-1.24,2.39-1.81C8.75,192,11,187,11,180.62c-.07-28.72,0-57.44,0-86.16,0-24.85-.1-49.7.06-74.55.05-7-2.41-12.32-8.19-16.21C1.69,2.93-.26,2.14.23.7.65-.54,2.65.25,3.92.24Q25.5.17,47.1.22c.67,0,1.59-.4,2,.32.45.9-.52,1.41-1,1.9A35.78,35.78,0,0,1,44.83,5a15.11,15.11,0,0,0-6.5,12.22c0,1.14-.07,2.29-.07,3.43q0,79.29-.07,158.56c0,7.34,2.07,13.15,8.47,17.13,1.07.67,2.82,1.55,2.37,2.94-.35,1.05-2.17.4-3.31.41C38.63,199.71,31.54,199.69,24.45,199.69Z"/><path class="cls-2" d="M99.64,257.25a24.89,24.89,0,0,0,2-5.1c2.57-7.16,5.17-14.32,7.6-21.53.54-1.6,1.54-1.38,2.65-1.38,3.59,0,3.59,0,3.59,3.56,0,10.73-.06,21.47,0,32.21,0,1.95-.71,2.14-2.35,2.15s-2.36-.24-2.32-2.17c.18-8.58-.14-17.18.28-25.76a4.93,4.93,0,0,0-.39-2.44q-1.78,4.83-3.55,9.65c-1.84,5-3.69,10-5.51,15.07-.37,1.05-.65,1.83-2.12,1.83s-1.64-1-2-2q-4.44-12.15-8.9-24.29a1.84,1.84,0,0,0-.76-1c.14,3,.39,6.07.42,9.1.06,6.73,0,13.46,0,20.19,0,1.43-.41,1.84-1.8,1.76-2.07-.11-4.15-.07-6.22,0-1,0-1.46-.27-1.74-1.32-.83-3-1.86-6-2.76-9A1.58,1.58,0,0,0,74,255.5c-3.65.08-7.3.07-11,0A1.61,1.61,0,0,0,61.14,257c-.76,2.88-1.73,5.71-2.59,8.58-.31,1-.7,1.64-2,1.62-6.52-.1-13-.08-19.55,0-1.25,0-1.55-.39-1.54-1.58q.06-17.4,0-34.8c0-1.28.46-1.52,1.62-1.54,3.27,0,3.27-.08,3.27,3.29v14.82c0,4.58.07,9.16,0,13.74,0,1.54.45,1.92,1.92,1.87,3.51-.1,7-.11,10.52,0a2.08,2.08,0,0,0,2.39-1.75c3.34-10.07,6.78-20.11,10.11-30.18a2.19,2.19,0,0,1,2.57-1.81c3.57.11,3.56,0,4.73,3.5Q77.67,248,82.86,263.24c.19.57.16,1.3,1,1.81v-2.33c0-10.46,0-20.91,0-31.36,0-1.58.26-2.24,2-2.17,3.6.15,3.66,0,4.89,3.38C93.74,240.72,96.65,248.9,99.64,257.25ZM68.5,233.13c-2,6.5-3.75,12.46-5.54,18.43H74.11C72.27,245.53,70.48,239.63,68.5,233.13Z"/><path class="cls-2" d="M238.35,246.74c.8.25,1.2.39,1.61.5,4.64,1.35,6.7,3.64,7.15,8a9.79,9.79,0,0,1-5.38,9.88,17.91,17.91,0,0,1-8.47,2c-3.71.06-7.44,0-11.16,0-1.09,0-1.48-.27-1.47-1.43,0-11.66,0-23.32,0-35,0-.7-.15-1.5,1-1.47,5.35.17,10.75-.56,16,.61,6.54,1.45,9.3,7.86,5.91,13.35C242.46,245,240.75,246,238.35,246.74Zm-12.83,9.42V262c0,.66,0,1.32,1,1.29,3.62-.1,7.29.36,10.84-.79,3.4-1.1,5.12-3.39,5.06-6.8-.06-3.11-1.67-5.05-5.1-6s-7.24-.48-10.87-.6c-1,0-.9.7-.9,1.34Zm0-17.12V244c0,.63-.12,1.39.89,1.34,3.39-.14,6.85.5,10.14-.86a5.49,5.49,0,0,0,3.58-5.71c-.1-2.75-1.29-4.3-4-5.08-3.22-.91-6.52-.41-9.79-.51-.84,0-.81.61-.81,1.19Z"/><path class="cls-2" d="M157,248.05c0-5.73,0-11.45,0-17.18,0-1.33.35-1.68,1.67-1.67,3.26,0,3.26,0,3.26,3.3,0,3.51.08,7,0,10.52,0,1.58.38,2.11,2,2.07,4.65-.11,9.31-.08,14,0,1.23,0,1.58-.36,1.55-1.57-.07-3.86,0-7.73,0-11.59,0-3-.46-2.51,2.78-2.73,2-.14,2.45.6,2.29,2.41s0,3.43,0,5.15c0,9.45-.08,18.9.07,28.34,0,2.37-1.23,2-2.66,2s-2.59.31-2.5-1.93c.19-4.72,0-9.45.08-14.17,0-1.32-.21-1.89-1.72-1.86q-7,.17-14,0c-1.62,0-1.86.61-1.84,2,.07,4.58-.13,9.17.09,13.74.11,2.35-1.06,2.21-2.69,2.25S156.92,267,157,265C157.12,259.36,157,253.7,157,248.05Z"/><path class="cls-2" d="M193.94,242.45c0,4-.19,8,0,12,.39,6.91,5.59,10.6,11.73,8.5,4-1.36,5.11-4.76,5.5-8.43.62-5.85.17-11.73.27-17.6a39.91,39.91,0,0,0,0-5.36c-.24-2.09.66-2.67,2.49-2.33.82.16,2.25-.7,2.22,1.08-.12,8.59.56,17.2-.39,25.75-.55,4.91-2.84,9.23-7.9,10.79s-10.27,1.55-14.53-2.33c-3.39-3.09-4.3-7.35-4.38-11.71-.14-7.37,0-14.75-.08-22.12,0-1.1.31-1.47,1.44-1.5,3.41-.12,3.41-.17,3.41,3.15v10.09Z"/><path class="cls-2" d="M20,267.66c-3.91.11-7.87-1.6-11.41-4.54-.83-.69-.9-1.15-.2-2,1.86-2.35,1.75-2.32,4.1-.62,4,2.88,8.29,4.08,13,2a5,5,0,0,0,3.17-4.67c.1-2.37-.66-4.26-2.81-5.33-3.25-1.63-6.6-3.06-9.84-4.69-5.39-2.72-7.35-6.25-6.39-11.24.81-4.21,5-7.54,10.24-8a15.48,15.48,0,0,1,11.7,3.78c.79.67,1,1.36.13,1.81s-.85,2.9-2.81,1.38a11.42,11.42,0,0,0-10.23-2.4c-2.46.62-4,2.19-4.28,4.21a5,5,0,0,0,3,5.61c3.69,1.83,7.56,3.33,11.18,5.29a9.92,9.92,0,0,1,2,16C28.13,266.57,24.7,267.76,20,267.66Z"/><path class="cls-2" d="M144.06,267.68c-9.3,0-15.06-6.61-16.23-15.6a25.9,25.9,0,0,1,2.07-14.63c3.95-8.48,15.18-11.58,22.69-6.15,2.26,1.63,2.15,3.18-.21,4.61-.58.35-.78,0-1.06-.23-7.52-5.17-14.95-2.91-17.67,5.66-1.8,5.68-1.71,11.44,1.46,16.77,3.63,6.11,11.23,7.32,16.45,2.42,1.88-1.76,2.24-.06,3.21.68,1.5,1.15.2,1.71-.47,2.37A14,14,0,0,1,144.06,267.68Z"/><path class="cls-2" d="M.64,248c0-5.65.06-11.29,0-16.94,0-1.53.43-2.06,1.91-1.86a8.15,8.15,0,0,0,1.71,0c1-.07,1.41.17,1.41,1.28q0,17.58,0,35.17c0,1.13-.38,1.56-1.49,1.44a5.79,5.79,0,0,0-1.5,0c-1.55.24-2.08-.27-2-1.94C.71,259.46.64,253.74.64,248Z"/><path class="cls-2" d="M120.14,248c0-5.65.12-11.31-.06-17-.07-2.17,1.12-1.88,2.39-1.81s2.68-.67,2.65,1.76c-.11,11.45-.07,22.9,0,34.36,0,1.43-.44,1.82-1.84,1.77-3.78-.14-3.08.39-3.11-3C120.11,258.76,120.14,253.39,120.14,248Z"/></g></g></svg>