<svg width="119" height="58" viewBox="0 0 119 58" fill="none" xmlns="http://www.w3.org/2000/svg">
<g id="Layer 2">
<g id="Layer 1">
<path id="Vector" d="M106.506 17.8481H112.049V27.5027L118.827 34.281L112.009 41.0995V50.7541H102.354L95.6082 57.5L88.85 50.7418H79.2636V41.2202L72.3445 34.3011L79.0423 27.6032V17.8481H84.1948L83.873 19.7388H81.0336V28.3474L75.0196 34.3614L79.5653 38.9071L80.9934 32.6518V48.8634H87.5504L84.1713 43.5132L95.5278 54.8696L100.154 50.2434L94.0673 48.9036H110.239V42.3868L104.888 45.7257L116.192 34.4218L111.606 29.7956L110.158 35.9102V19.7388H106.708L106.506 17.8481Z" fill="#F5F2EE" stroke="#F5F2EE" stroke-width="0.266828" stroke-miterlimit="10"/>
<path id="Vector_2" d="M95.586 9.83608C98.7528 12.1637 101.001 14.184 102.278 15.8512C103.114 16.9429 103.519 17.895 103.359 18.3956C103.111 19.1778 102.508 20.4181 102.297 20.8316L101.21 22.9547L103.557 23.4017L106.841 24.0207L106.461 37.3181C103.154 39.2277 99.4032 40.233 95.5849 40.233C91.7665 40.233 88.0155 39.2277 84.7089 37.3181L84.329 24.0207L87.6143 23.4072L89.9609 22.9603L88.8725 20.8372C88.6624 20.4248 88.0601 19.1834 87.8109 18.4012C87.6523 17.9006 88.0556 16.9485 88.8926 15.8568C90.1687 14.1896 92.417 12.1693 95.5838 9.84167M95.5838 7.63586C87.2254 13.5839 85.471 16.9418 86.108 18.9431C86.4555 20.0382 87.2813 21.6506 87.2813 21.6506L82.4976 22.5535L82.9445 38.3473C86.7197 40.749 91.1015 42.0247 95.5759 42.0247C100.05 42.0247 104.432 40.749 108.207 38.3473L108.654 22.5535L103.872 21.6506C103.872 21.6506 104.696 20.0382 105.045 18.9431C105.681 16.9418 103.928 13.5795 95.5681 7.63586H95.5838Z" fill="#F5F2EE"/>
<path id="Vector_3" d="M96.5462 0.500002C96.0742 0.499809 95.6081 0.604698 95.1816 0.807058C94.7551 1.00942 94.3791 1.30417 94.0807 1.66994C93.7823 2.0357 93.5691 2.46331 93.4565 2.92172C93.3439 3.38013 93.3348 3.85785 93.4298 4.32023C93.5248 4.7826 93.7216 5.21803 94.0058 5.59492C94.29 5.97181 94.6545 6.28071 95.0729 6.4992C95.4913 6.71769 95.9531 6.8403 96.4248 6.85813C96.8965 6.87596 97.3663 6.78856 97.8 6.60228C97.203 6.38124 96.6879 5.98265 96.3242 5.46015C95.9605 4.93764 95.7655 4.31628 95.7655 3.67964C95.7655 3.04301 95.9605 2.42164 96.3242 1.89914C96.6879 1.37663 97.203 0.978049 97.8 0.75701C97.4039 0.587025 96.9773 0.499575 96.5462 0.500002Z" fill="#F5F2EE"/>
<path id="Vector_4" d="M91.4431 31.9456V40.7151H99.73V31.9456C99.73 31.9456 95.7474 27.6412 91.4431 31.9456Z" fill="#F5F2EE"/>
<path id="Vector_5" d="M0.000488281 49.1998L2.7069 43.1075H4.09921L6.83244 49.1998H5.35297L3.11811 43.8205H3.68353L1.44867 49.1998H0.000488281ZM1.3671 47.8935L1.72356 46.823H4.87359L5.23899 47.8935H1.3671Z" fill="#F5F2EE"/>
<path id="Vector_6" d="M7.4668 49.1998V43.1075H8.88593V48.0499H11.9231V49.1998H7.4668Z" fill="#F5F2EE"/>
<path id="Vector_7" d="M16.6057 49.1998H15.1865V43.1075H16.6057V49.1998ZM19.4685 46.7012H16.4917V45.5089H19.4685V46.7012ZM19.3646 43.1075H20.7737V49.1998H19.3646V43.1075Z" fill="#F5F2EE"/>
<path id="Vector_8" d="M21.418 49.1998L24.1244 43.1075H25.5167L28.2488 49.1998H26.7693L24.5345 43.8205H25.0999L22.865 49.1998H21.418ZM22.7835 47.8935L23.141 46.823H26.2911L26.6565 47.8935H22.7835Z" fill="#F5F2EE"/>
<path id="Vector_9" d="M28.8848 49.1998V43.1076H31.5219C32.005 43.0955 32.4852 43.1858 32.931 43.3724C33.3037 43.5315 33.6215 43.7965 33.845 44.1345C34.0557 44.4908 34.1669 44.8972 34.1669 45.3111C34.1669 45.7251 34.0557 46.1315 33.845 46.4878C33.6222 46.8232 33.3037 47.084 32.931 47.2365C32.4838 47.4176 32.0042 47.5051 31.5219 47.4935H29.6591L30.3028 46.8845V49.1998H28.8848ZM30.3028 47.0409L29.6591 46.3705H31.447C31.8761 46.3705 32.2002 46.2777 32.4214 46.0922C32.5332 45.996 32.6214 45.8755 32.6795 45.7399C32.7376 45.6043 32.764 45.4573 32.7567 45.31C32.7649 45.1626 32.739 45.0153 32.6808 44.8796C32.6227 44.7439 32.5339 44.6235 32.4214 44.5278C32.1979 44.3457 31.8761 44.254 31.447 44.254H29.6591L30.3028 43.5836V47.0409ZM32.7611 49.1998L31.2347 46.985H32.7488L34.2808 49.1964L32.7611 49.1998Z" fill="#F5F2EE"/>
<path id="Vector_10" d="M34.4807 49.1998L37.1871 43.1075H38.5794L41.3116 49.1998H39.8321L37.5972 43.8205H38.1626L35.9278 49.1998H34.4807ZM35.8462 47.8935L36.2038 46.823H39.3538L39.7192 47.8935H35.8462Z" fill="#F5F2EE"/>
<path id="Vector_11" d="M41.9475 49.1998V43.1075H43.1141L45.7032 47.4063H45.0886L47.6307 43.1075H48.8052V49.1998H47.4911L47.4732 45.1346H47.7347L45.6808 48.5494H45.054L42.9744 45.1379H43.2616V49.2031L41.9475 49.1998Z" fill="#F5F2EE"/>
<path id="Vector_12" d="M49.4575 49.1998L52.1639 43.1075H53.5562L56.2895 49.1998H54.81L52.5751 43.8205H53.1406L50.9057 49.1998H49.4575ZM50.8241 47.8935L51.1806 46.823H54.3306L54.6971 47.8935H50.8241Z" fill="#F5F2EE"/>
<path id="Vector_13" d="M56.9243 49.1998V43.1075H58.3434V49.1998H56.9243Z" fill="#F5F2EE"/>
<path id="Vector_14" d="M59.7827 49.1998V43.1075H60.9448L64.5396 47.4934H63.9742V43.1075H65.3699V49.1998H64.1999L60.6063 44.8127H61.1717V49.1998H59.7827Z" fill="#F5F2EE"/>
<path id="Vector_15" d="M5.66005 26.1026C5.42316 26.5853 5.19371 27.096 4.97172 27.6346C4.74972 28.1732 4.52623 28.7408 4.30126 29.3375L4.31578 29.323C4.26323 29.4696 4.2181 29.6188 4.18058 29.77C4.14918 29.8976 4.13268 30.0285 4.13141 30.1599C4.13141 30.7939 4.54113 31.2953 5.36058 31.664C5.89907 31.7615 6.44481 31.8135 6.99202 31.8193C7.89898 31.8296 8.79962 31.6673 9.64592 31.3411C10.246 31.1152 10.8274 30.8425 11.3846 30.5253C11.8908 30.2341 12.3639 29.8891 12.7959 29.4962V29.3979C12.7971 29.0709 12.7804 28.7441 12.7457 28.419C12.7129 28.1165 12.6682 27.8279 12.6116 27.553V27.5675C12.5371 27.2368 12.4495 26.8915 12.349 26.5317C12.2495 26.173 12.1523 25.8366 12.0584 25.526L13.6463 21.9077C13.6694 21.8443 13.7112 21.7893 13.7661 21.75C13.821 21.7107 13.8865 21.6889 13.954 21.6875C14.0216 21.686 14.0879 21.705 14.1445 21.7419C14.201 21.7788 14.2451 21.8319 14.271 21.8943C14.8722 23.136 15.1887 24.4962 15.1973 25.8757C15.1981 26.1601 15.1839 26.4443 15.1548 26.7272C15.1269 27.001 15.0889 27.2759 15.0431 27.5496C14.8699 28.5026 14.6019 29.4358 14.243 30.3354C13.8921 31.2122 13.4446 32.0472 12.9088 32.825C11.8316 34.376 10.4747 35.4495 8.83802 36.0454C8.08 36.3306 7.2788 36.484 6.46907 36.4991C5.80557 36.4991 5.15071 36.3486 4.5538 36.0588V36.0734C3.94273 35.7658 3.44562 35.2714 3.13466 34.6621C2.78528 34.0125 2.55993 33.221 2.45862 32.2875C2.44886 32.2134 2.444 32.1388 2.44409 32.064V31.8406C2.44409 30.9421 2.66162 29.8664 3.09667 28.6134C3.6021 27.1987 4.22209 25.8275 4.95048 24.5136L5.46897 23.5705C5.65372 23.2352 5.83996 22.9 6.02768 22.5648L6.45454 21.8429C6.47531 21.8027 6.50438 21.7674 6.53982 21.7393C6.57527 21.7112 6.61628 21.6909 6.66015 21.6798C6.70159 21.6677 6.74514 21.6645 6.7879 21.6705C6.83067 21.6764 6.87168 21.6914 6.90822 21.7144L7.30602 21.9379H7.33396L9.63251 23.4788C9.70065 23.5289 9.7483 23.6019 9.7666 23.6845C9.77871 23.7259 9.78188 23.7694 9.77591 23.8122C9.76994 23.855 9.75496 23.896 9.73196 23.9325C9.42727 24.4905 9.12594 25.0343 8.82796 25.564C8.52998 26.0936 8.232 26.6233 7.93402 27.1529C7.91291 27.1965 7.88155 27.2343 7.84263 27.2631C7.8037 27.2919 7.75838 27.3109 7.71053 27.3183C7.61606 27.338 7.51767 27.3229 7.43341 27.2759L5.66005 26.1026Z" fill="#F5F2EE"/>
<path id="Vector_16" d="M18.4131 34.9403C18.3867 34.9851 18.3504 35.0233 18.3069 35.052C18.2702 35.0811 18.2296 35.1048 18.1863 35.1224L15.3212 35.6622L12.8628 36.1158C12.8001 36.1324 12.7339 36.1301 12.6725 36.1091C12.6111 36.0882 12.5573 36.0495 12.5179 35.998C12.4784 35.9465 12.4551 35.8844 12.4509 35.8197C12.4467 35.755 12.4617 35.6904 12.4941 35.6342L14.1401 32.3289C14.1681 32.2834 14.2063 32.2451 14.2518 32.2171C14.2958 32.1832 14.3464 32.1589 14.4004 32.1456C15.3748 31.9758 16.2993 31.8081 17.1739 31.6428C18.0484 31.4774 18.8925 31.3142 19.706 31.1533C19.7705 31.1357 19.8388 31.1378 19.9021 31.1593C19.9654 31.1808 20.0209 31.2207 20.0613 31.274C20.1025 31.3245 20.1261 31.3871 20.1285 31.4522C20.131 31.5174 20.1121 31.5815 20.0747 31.6349L18.4131 34.9403Z" fill="#F5F2EE"/>
<path id="Vector_17" d="M22.712 20.854C22.712 20.987 22.712 21.1121 22.7042 21.2295C22.6964 21.3468 22.6975 21.4686 22.6975 21.5915C22.6975 22.3774 22.7187 23.1295 22.7612 23.8476C22.8036 24.5657 22.858 25.3174 22.9243 26.1026L22.9958 27.0244L20.9241 30.969C20.8883 31.0431 20.8284 31.1029 20.7543 31.1388C20.6919 31.1667 20.6222 31.1741 20.5554 31.16C20.4864 31.1443 20.4242 31.1071 20.3777 31.0539C20.325 30.9949 20.2928 30.9204 20.2861 30.8416L19.9598 26.1316C19.7255 26.3585 19.4741 26.567 19.2077 26.7551C18.953 26.935 18.6826 27.1049 18.3987 27.2658C17.7892 27.5726 17.1535 27.8243 16.4991 28.0178C15.8085 28.2257 15.1228 28.4119 14.4419 28.5765L13.9178 28.705C13.8638 28.725 13.8053 28.73 13.7487 28.7196C13.692 28.7092 13.6391 28.6838 13.5956 28.646C13.5521 28.6082 13.5196 28.5594 13.5014 28.5047C13.4831 28.4501 13.4799 28.3915 13.4921 28.3352L13.9882 24.5907C14.0053 24.4993 14.053 24.4166 14.1234 24.356C14.1566 24.3261 14.1964 24.3047 14.2396 24.2937C14.2828 24.2826 14.3281 24.2821 14.3715 24.2923C14.4833 24.3113 14.595 24.3258 14.7067 24.3348C14.8185 24.3437 14.9224 24.3493 15.0263 24.3493C15.9821 24.3493 17.1502 24.0469 18.5306 23.442C20.1561 22.7328 21.1915 21.9133 21.637 20.9836V21.0127C21.7203 20.7891 21.875 20.5994 22.0773 20.473C22.4997 20.2636 22.7113 20.3906 22.712 20.854Z" fill="#F5F2EE"/>
<path id="Vector_18" d="M26.9963 23.6632C27.1999 23.2088 27.4675 22.7859 27.7908 22.4072C28.0746 22.0906 28.3678 21.9226 28.6702 21.9032C29.0884 21.8045 29.5179 21.7616 29.9474 21.7758H30.267C30.3787 21.7758 30.4905 21.7759 30.6022 21.7904C31.1513 21.8284 31.5461 21.9725 31.7867 22.2228C32.0273 22.4731 32.0962 22.8348 31.9934 23.3078C31.7655 24.4253 31.5334 25.2008 31.2973 25.6343V25.6209C30.9947 26.141 30.6486 26.6344 30.2625 27.0959C29.9391 27.4828 29.5669 27.8261 29.1552 28.1173C28.6726 28.4652 28.1599 28.7692 27.6232 29.0257C27.1315 29.2716 26.6491 29.4887 26.1761 29.6772C25.7226 29.861 25.2584 30.0174 24.786 30.1454C24.3323 30.2787 23.8668 30.402 23.3892 30.5153C22.9117 30.6285 22.4316 30.7466 21.9489 30.8695L20.8314 31.1388C20.7769 31.1564 20.7187 31.1591 20.6627 31.1466C20.6068 31.1341 20.5552 31.107 20.5133 31.0679C20.4714 31.0288 20.4406 30.9793 20.4243 30.9244C20.4079 30.8694 20.4065 30.8111 20.4202 30.7555L21.0449 27.1384C21.0623 27.065 21.1012 26.9985 21.1566 26.9473C21.2072 26.8983 21.2715 26.866 21.341 26.8546C22.1649 26.7503 22.962 26.6225 23.7323 26.4713C24.5001 26.321 25.2598 26.1319 26.0085 25.9047L26.9963 23.6632Z" fill="#F5F2EE"/>
<path id="Vector_19" d="M43.7352 31.8629C43.7167 32.0072 43.6648 32.1452 43.5835 32.2659C43.5022 32.3866 43.3938 32.4866 43.267 32.5579C43.0067 32.7999 42.7811 33.0766 42.5965 33.3803C42.3976 33.7022 42.2036 34.0426 42.0143 34.4017C41.4757 35.4446 40.7524 36.0778 39.8443 36.3013C39.4804 36.377 39.1097 36.4144 38.738 36.413C38.2182 36.406 37.7003 36.3488 37.1915 36.2421C36.8317 36.1572 36.0514 35.9337 34.8505 35.5716C34.2359 35.3817 33.7372 35.2088 33.3543 35.0531C33.075 34.9491 32.8063 34.8185 32.552 34.6632C32.3732 34.4933 32.2931 34.3257 32.3117 34.1603C32.3307 33.9949 32.4816 33.8452 32.7654 33.7133C33.4358 33.4764 34.119 33.2682 34.8148 33.0887C35.5235 32.906 36.2411 32.7594 36.9647 32.6495C37.7096 32.5266 38.4308 32.3918 39.128 32.245C39.8253 32.0983 40.4991 31.9396 41.1495 31.769C41.5902 31.6523 41.9854 31.4054 42.2836 31.0606L42.2412 31.103C42.3245 30.9628 42.4514 30.8536 42.6024 30.7921C42.7535 30.7306 42.9205 30.7201 43.0781 30.7622L43.0647 30.7477C43.6257 30.8453 43.8492 31.217 43.7352 31.8629Z" fill="#F5F2EE"/>
<path id="Vector_20" d="M49.9349 25.9774C50.3126 25.8165 50.7171 25.6343 51.1551 25.4309C51.5932 25.2276 52.058 24.994 52.5597 24.7292C52.5028 24.7102 52.429 24.6845 52.3363 24.651C52.2435 24.6175 52.1541 24.5873 52.0591 24.5582C51.7387 24.4881 51.4145 24.4362 51.0881 24.4029C50.7328 24.3649 50.3424 24.3366 49.917 24.318C49.0976 24.3083 48.4782 24.2513 48.0587 24.147L48.0733 24.1616C47.6196 24.0953 47.5202 23.7548 47.7749 23.1402C47.9239 22.7804 48.0871 22.428 48.2644 22.0831C48.4417 21.7382 48.619 21.3859 48.7963 21.026H48.7828C48.8678 20.8473 48.9549 20.6718 49.0454 20.502C49.136 20.3321 49.222 20.1667 49.308 19.9913C49.3246 19.9553 49.3481 19.9229 49.3773 19.8961C49.4064 19.8692 49.4406 19.8484 49.4779 19.8349C49.5492 19.8075 49.6271 19.8024 49.7014 19.8203C50.0046 19.8874 50.3875 19.9537 50.8501 20.0192C51.3127 20.0848 51.8692 20.1407 52.5195 20.1869C53.102 20.2183 53.6796 20.3112 54.2426 20.464C54.6479 20.5706 55.03 20.7509 55.3701 20.9959C55.5074 21.0976 55.6188 21.2302 55.6953 21.383C55.7718 21.5358 55.8112 21.7044 55.8103 21.8753C55.8033 22.1149 55.7502 22.3509 55.6539 22.5703V22.5558C55.5504 22.8121 55.4535 23.0393 55.3634 23.2374C55.2729 23.4363 55.2002 23.6017 55.1399 23.7336C54.9421 24.1314 54.7376 24.4979 54.5298 24.8331C54.3219 25.1684 54.1096 25.5114 53.8917 25.8612H53.9062C53.8582 25.9371 53.8023 26.0198 53.7353 26.1103C53.6682 26.2009 53.6124 26.2824 53.5654 26.3584C53.1386 27.0568 52.6158 27.6918 52.0122 28.2446C51.4771 28.7231 50.895 29.1462 50.2746 29.5073C49.8739 29.7364 49.4618 29.9449 49.0398 30.132C48.5772 30.3398 48.0476 30.5525 47.4509 30.77H47.4654L47.0609 30.9186L46.643 31.0818C46.3778 31.1868 46.1107 31.2911 45.8418 31.3947C45.5714 31.4986 45.2954 31.6181 45.0115 31.7489C44.7277 31.8796 44.4986 31.9925 44.2953 32.0841C44.1362 32.1517 43.982 32.2301 43.8338 32.3188C43.6907 32.4016 43.5533 32.4938 43.4225 32.5948C43.2803 32.7043 43.1383 32.8201 42.9968 32.9423C42.7599 33.3021 42.4951 33.482 42.2023 33.482C42.0858 33.4778 41.9727 33.4411 41.876 33.3759C41.7239 33.2797 41.5987 33.1465 41.5119 32.9888C41.4252 32.8311 41.3797 32.6541 41.3799 32.4741C41.3819 32.2949 41.4231 32.1183 41.5006 31.9567C41.5973 31.7543 41.7137 31.562 41.8481 31.3824C41.9297 31.2004 42.0006 31.0139 42.0604 30.8237C42.117 30.6441 42.174 30.4739 42.2314 30.313L42.2738 30.1856V30.199C42.3401 30.0098 42.4146 29.8236 42.4973 29.6403C42.5777 29.4558 42.6802 29.2817 42.8024 29.1218L42.789 29.1363C42.9196 28.9377 43.0855 28.7647 43.2784 28.6257C43.5102 28.4493 43.7596 28.2973 44.0226 28.172C44.4475 27.9538 44.8831 27.7573 45.3278 27.5831C45.7539 27.4177 46.1655 27.2687 46.5625 27.1361L47.3447 26.8948C47.7984 26.7629 48.2383 26.6236 48.6644 26.4769C49.0905 26.3301 49.514 26.1636 49.9349 25.9774Z" fill="#F5F2EE"/>
<path id="Vector_21" d="M54.6304 18.1733C54.3167 19.3786 53.7617 20.5076 52.9989 21.4921C52.9611 21.5457 52.9064 21.585 52.8436 21.6038C52.7808 21.6308 52.7108 21.6359 52.6447 21.6184L49.8925 20.9222C49.8448 20.9104 49.8002 20.8885 49.7617 20.858C49.7231 20.8276 49.6915 20.7893 49.669 20.7456C49.6459 20.7007 49.6338 20.6509 49.6338 20.6004C49.6338 20.5498 49.6459 20.5 49.669 20.4551L49.8679 19.9869C49.8973 19.9468 49.9302 19.9094 49.9662 19.8752C49.9944 19.8397 50.0338 19.8148 50.078 19.8048C50.3812 19.6997 50.7287 19.5742 51.1205 19.4282C51.4875 19.2929 51.8454 19.1343 52.1921 18.9533C52.1825 18.2538 52.1657 17.5517 52.1419 16.8469C52.118 16.1422 52.0826 15.4211 52.0357 14.6836L51.7373 10.1156L53.8795 6.73869C53.9191 6.66961 53.9821 6.61692 54.0571 6.59007C54.1231 6.5666 54.1942 6.56158 54.2627 6.57554C54.3321 6.59338 54.3943 6.63245 54.4404 6.68728C54.4927 6.74587 54.5207 6.82221 54.5186 6.90071L54.9868 15.0579C54.9868 15.1328 54.9868 15.2043 54.9935 15.2702C55.0002 15.3362 55.0002 15.4077 55.0002 15.4826C54.9978 16.392 54.8734 17.297 54.6304 18.1733Z" fill="#F5F2EE"/>
<path id="Vector_22" d="M58.3186 20.1165L60.4417 16.7396C60.4818 16.6709 60.5447 16.6184 60.6194 16.591C60.6854 16.5681 60.7564 16.5631 60.825 16.5765C60.8907 16.591 60.9501 16.6258 60.9948 16.676C61.0448 16.7335 61.0749 16.8056 61.0809 16.8816L61.8888 28.9263L59.7511 32.3021C59.7194 32.3691 59.665 32.4229 59.5976 32.454C59.5302 32.485 59.454 32.4914 59.3824 32.4719C59.311 32.4563 59.247 32.417 59.2007 32.3604C59.1545 32.3038 59.1287 32.2332 59.1276 32.1601L58.3186 20.1165Z" fill="#F5F2EE"/>
<path id="Vector_23" d="M0.000488281 39.6848H66.0908" stroke="#F5F2EE" stroke-width="2.84616" stroke-miterlimit="10"/>
</g>
</g>
</svg>
