<svg xmlns="http://www.w3.org/2000/svg" viewBox="0 0 42 42"><defs><style>.cls-1{fill:#fff;}.cls-2{fill:none;stroke:#fff;stroke-miterlimit:10;stroke-width:2px;}</style></defs><g id="Layer_2" data-name="Layer 2"><g id="Layer_1-2" data-name="Layer 1"><path class="cls-1" d="M32.62,13.79a9.43,9.43,0,0,1-2.74.75A4.81,4.81,0,0,0,32,11.9a9.43,9.43,0,0,1-3,1.16,4.77,4.77,0,0,0-8.25,3.26,4.34,4.34,0,0,0,.13,1.09,13.54,13.54,0,0,1-9.83-5,4.77,4.77,0,0,0,1.47,6.37,4.81,4.81,0,0,1-2.16-.6v.06a4.78,4.78,0,0,0,3.83,4.68,5.18,5.18,0,0,1-1.26.16A5.29,5.29,0,0,1,12,23a4.79,4.79,0,0,0,4.46,3.31,9.56,9.56,0,0,1-5.92,2,8.51,8.51,0,0,1-1.14-.07A13.56,13.56,0,0,0,30.25,16.88c0-.21,0-.42,0-.62A9.64,9.64,0,0,0,32.62,13.79Z"/><circle class="cls-2" cx="21" cy="21" r="20"/></g></g></svg>