<svg xmlns="http://www.w3.org/2000/svg" width="79" height="79" viewBox="0 0 79 79" fill="none">
<path d="M28.8075 25.5577L36.25 18.0827V49.2501C36.25 50.1121 36.5924 50.9388 37.2019 51.5482C37.8114 52.1577 38.638 52.5001 39.5 52.5001C40.362 52.5001 41.1886 52.1577 41.7981 51.5482C42.4076 50.9388 42.75 50.1121 42.75 49.2501V18.0827L50.1925 25.5577C50.4946 25.8623 50.8541 26.104 51.2501 26.269C51.6462 26.434 52.071 26.519 52.5 26.519C52.929 26.519 53.3538 26.434 53.7499 26.269C54.1459 26.104 54.5054 25.8623 54.8075 25.5577C55.1121 25.2555 55.3539 24.8961 55.5189 24.5C55.6839 24.104 55.7688 23.6792 55.7688 23.2502C55.7688 22.8211 55.6839 22.3963 55.5189 22.0003C55.3539 21.6042 55.1121 21.2448 54.8075 20.9427L41.8075 7.94265C41.4984 7.64677 41.1339 7.41483 40.735 7.26015C39.9438 6.93509 39.0562 6.93509 38.265 7.26015C37.8661 7.41483 37.5016 7.64677 37.1925 7.94265L24.1925 20.9427C23.8895 21.2457 23.6491 21.6054 23.4851 22.0013C23.3211 22.3973 23.2367 22.8216 23.2367 23.2502C23.2367 23.6787 23.3211 24.103 23.4851 24.499C23.6491 24.8949 23.8895 25.2546 24.1925 25.5577C24.4955 25.8607 24.8553 26.101 25.2512 26.265C25.6471 26.429 26.0715 26.5134 26.5 26.5134C26.9285 26.5134 27.3529 26.429 27.7488 26.265C28.1447 26.101 28.5045 25.8607 28.8075 25.5577ZM68.75 39.5001C67.888 39.5001 67.0614 39.8426 66.4519 40.4521C65.8424 41.0615 65.5 41.8882 65.5 42.7501V62.2502C65.5 63.1121 65.1576 63.9388 64.5481 64.5483C63.9386 65.1577 63.112 65.5002 62.25 65.5002H16.75C15.888 65.5002 15.0614 65.1577 14.4519 64.5483C13.8424 63.9388 13.5 63.1121 13.5 62.2502V42.7501C13.5 41.8882 13.1576 41.0615 12.5481 40.4521C11.9386 39.8426 11.112 39.5001 10.25 39.5001C9.38805 39.5001 8.5614 39.8426 7.9519 40.4521C7.34241 41.0615 7 41.8882 7 42.7501V62.2502C7 64.836 8.02723 67.316 9.85571 69.1444C11.6842 70.9729 14.1641 72.0002 16.75 72.0002H62.25C64.8359 72.0002 67.3158 70.9729 69.1443 69.1444C70.9728 67.316 72 64.836 72 62.2502V42.7501C72 41.8882 71.6576 41.0615 71.0481 40.4521C70.4386 39.8426 69.612 39.5001 68.75 39.5001Z" fill="#CE7D39"/>
</svg>