<svg xmlns="http://www.w3.org/2000/svg" width="24" height="24" viewBox="0 0 24 24" fill="none">
  <path d="M16.5 16V16.5H17H19C20.3839 16.5 21.5 17.6161 21.5 19V19.6324L13.9915 21.9788L7.13354 20.0782L6.5 19.9026V20.56V21.5H1.5V11.5H8.8797L14.9544 13.7682C14.9546 13.7682 14.9548 13.7683 14.955 13.7684C15.8796 14.1154 16.5 15.0087 16.5 16ZM5 20.5H5.5V20V13V12.5H5H3H2.5V13V20V20.5H3H5ZM13.8379 20.8922L13.9787 20.9308L14.1182 20.8875L20.0482 19.0475L20.6036 18.8752L20.3499 18.3519C20.1116 17.8604 19.5935 17.5 19 17.5H13.65C13.1598 17.5 12.6835 17.4275 12.2281 17.2757L12.2275 17.2755L10.3219 16.6429L10.6372 15.6921L12.5419 16.3243C12.5421 16.3244 12.5423 16.3245 12.5424 16.3245C12.5425 16.3245 12.5425 16.3245 12.5425 16.3245C12.6303 16.3537 12.7372 16.3701 12.8199 16.3809C12.9147 16.3933 13.0265 16.4043 13.1453 16.414C13.3835 16.4334 13.6683 16.4494 13.9393 16.462C14.2111 16.4746 14.4729 16.4841 14.6666 16.4904C14.7635 16.4935 14.8435 16.4959 14.8993 16.4975L14.9642 16.4992L14.9814 16.4997L14.9859 16.4998L14.987 16.4998L14.9874 16.4998L14.9875 16.4998L15 16L14.9875 16.4998L15.5 16.5127V16C15.5 15.422 15.1414 14.9067 14.6086 14.703L14.6086 14.703L14.6047 14.7015L8.78468 12.5315L8.70018 12.5H8.61H7H6.5V13V18.5V18.8814L6.86786 18.9822L13.8379 20.8922ZM11.5 7C11.5 4.51614 13.5161 2.5 16 2.5C18.4839 2.5 20.5 4.51614 20.5 7C20.5 9.48386 18.4839 11.5 16 11.5C13.5161 11.5 11.5 9.48386 11.5 7ZM12.5 7C12.5 8.93614 14.0639 10.5 16 10.5C17.9361 10.5 19.5 8.93614 19.5 7C19.5 5.06386 17.9361 3.5 16 3.5C14.0639 3.5 12.5 5.06386 12.5 7Z"  />
</svg>