<svg xmlns="http://www.w3.org/2000/svg" width="24" height="24" viewBox="0 0 24 24" fill="none">
<g clip-path="url(#clip0_1162_630)">
<path d="M5 19V23H23V5.97H19M2 18L7 12L10 15L14 10L19 16M1 1H19V19H1V1ZM6 8C6.26522 8 6.51957 7.89464 6.70711 7.70711C6.89464 7.51957 7 7.26522 7 7C7 6.73478 6.89464 6.48043 6.70711 6.29289C6.51957 6.10536 6.26522 6 6 6C5.73478 6 5.48043 6.10536 5.29289 6.29289C5.10536 6.48043 5 6.73478 5 7C5 7.26522 5.10536 7.51957 5.29289 7.70711C5.48043 7.89464 5.73478 8 6 8Z"  stroke-width="2"/>
</g>
<defs>
<clipPath id="clip0_1162_630">
<rect width="24" height="24" fill="white"/>
</clipPath>
</defs>
</svg>